<svg width="139" height="41" viewBox="0 0 139 41" fill="none" xmlns="http://www.w3.org/2000/svg">
<g clip-path="url(#clip0_11463_102684)">
<path d="M137.785 36.1582C137.785 38.3276 136.024 40.0847 133.846 40.0847H4.94396C2.76698 40.0847 1 38.3276 1 36.1582V4.84569C1 2.6774 2.76706 0.914062 4.94396 0.914062H133.845C136.024 0.914062 137.784 2.6774 137.784 4.84569L137.785 36.1582Z" fill="white"/>
<path d="M138.196 36.1585V36.1589C138.198 38.5499 136.241 40.4985 133.839 40.4985H4.93652C2.53244 40.4985 0.578125 38.5501 0.578125 36.1585V4.84703C0.578125 2.45285 2.53299 0.501953 4.93652 0.501953H133.838C136.238 0.501953 138.196 2.45305 138.196 4.84703V36.1585Z" stroke="#5B2E4F"/>
<path d="M31.0369 20.2838C31.0071 16.9796 33.7481 15.3721 33.8734 15.2973C32.3211 13.0388 29.9151 12.7302 29.0696 12.7056C27.0488 12.4934 25.0885 13.9122 24.0591 13.9122C23.0092 13.9122 21.4239 12.7261 19.7154 12.7609C17.5169 12.7948 15.4602 14.065 14.3321 16.0375C12.0041 20.0593 13.7403 25.9696 15.9708 29.2204C17.0864 30.8136 18.3902 32.5903 20.0966 32.5277C21.7661 32.4601 22.3897 31.4666 24.4043 31.4666C26.4004 31.4666 26.9861 32.5277 28.7264 32.4877C30.5182 32.4601 31.6461 30.8884 32.7229 29.282C34.0122 27.4581 34.5299 25.6599 34.5506 25.5677C34.5094 25.5533 31.0718 24.2431 31.0369 20.2838ZM27.7493 10.567C28.6472 9.44648 29.2616 7.92202 29.0911 6.375C27.7914 6.43241 26.1662 7.27205 25.2302 8.36798C24.4021 9.33371 23.6624 10.9166 23.8535 12.4052C25.3135 12.5139 26.8124 11.6701 27.7493 10.567Z" fill="#5B2E4F"/>
<path d="M55.2065 32.3002H52.8733L51.5953 28.2927H47.1529L45.9355 32.3002H43.6641L48.0663 18.6569H50.7847L55.2065 32.3002ZM51.2101 26.6114L50.0543 23.0488C49.9321 22.6849 49.702 21.8278 49.3649 20.4786H49.3239C49.1883 21.0589 48.9715 21.916 48.6746 23.0488L47.5383 26.6114H51.2101ZM66.5055 27.2603C66.5055 28.9334 66.0504 30.2559 65.139 31.2269C64.3234 32.091 63.3094 32.5227 62.1001 32.5227C60.7943 32.5227 59.8553 32.0582 59.2851 31.1274V36.2893H57.0948V25.6959C57.0948 24.6449 57.0671 23.5676 57.0137 22.4624H58.94L59.0623 24.0217H59.1033C59.8337 22.8468 60.9422 22.2593 62.4299 22.2593C63.5928 22.2593 64.5637 22.7176 65.3404 23.6351C66.1161 24.5548 66.5055 25.7625 66.5055 27.2603ZM64.274 27.3403C64.274 26.3827 64.0582 25.5933 63.6247 24.971C63.1511 24.3242 62.5151 24.0003 61.7179 24.0003C61.1775 24.0003 60.6864 24.1806 60.2478 24.5364C59.808 24.8952 59.5204 25.3637 59.3859 25.944C59.3181 26.2146 59.2842 26.435 59.2842 26.6094V28.2506C59.2842 28.9652 59.504 29.5691 59.9437 30.0633C60.3834 30.5554 60.9547 30.8024 61.6574 30.8024C62.4824 30.8024 63.1245 30.4836 63.5837 29.851C64.0439 29.2164 64.274 28.3798 64.274 27.3403ZM77.8444 27.2603C77.8444 28.9334 77.3893 30.2559 76.478 31.2269C75.6613 32.091 74.6483 32.5227 73.4381 32.5227C72.1323 32.5227 71.1933 32.0582 70.6231 31.1274V36.2893H68.4328V25.6959C68.4328 24.6449 68.405 23.5676 68.3516 22.4624H70.2779L70.4002 24.0217H70.4412C71.1707 22.8468 72.2792 22.2593 73.7678 22.2593C74.9297 22.2593 75.9006 22.7176 76.6794 23.6351C77.4541 24.5548 77.8444 25.7625 77.8444 27.2603ZM75.612 27.3403C75.612 26.3827 75.3953 25.5933 74.9616 24.971C74.488 24.3242 73.8541 24.0003 73.0569 24.0003C72.5165 24.0003 72.0254 24.1806 71.5847 24.5364C71.145 24.8952 70.8584 25.3637 70.7238 25.944C70.657 26.2146 70.621 26.435 70.621 26.6094V28.2506C70.621 28.9652 70.8419 29.5691 71.2796 30.0633C71.7193 30.5543 72.2905 30.8024 72.9953 30.8024C73.8212 30.8024 74.4633 30.4836 74.9216 29.851C75.3818 29.2164 75.612 28.3798 75.612 27.3403ZM90.5221 28.4731C90.5221 29.6347 90.1152 30.5789 89.3068 31.3078C88.417 32.1033 87.175 32.5021 85.5825 32.5021C84.1113 32.5021 82.9319 32.2192 82.0422 31.6522L82.5487 29.8305C83.5093 30.3984 84.5644 30.6814 85.713 30.6814C86.539 30.6814 87.1811 30.4948 87.6393 30.1247C88.0984 29.7536 88.3307 29.2574 88.3307 28.6382C88.3307 28.0836 88.1386 27.6191 87.7615 27.2409C87.3825 26.8636 86.7558 26.512 85.8754 26.1891C83.4816 25.2982 82.2837 23.9951 82.2837 22.281C82.2837 21.1615 82.7069 20.245 83.5515 19.5284C84.396 18.8128 85.5158 18.4551 86.9089 18.4551C88.1531 18.4551 89.1897 18.6714 90.0126 19.103L89.463 20.8847C88.6883 20.4664 87.8139 20.2573 86.8359 20.2573C86.0634 20.2573 85.4572 20.4469 85.0236 20.8242C84.6589 21.1615 84.474 21.5727 84.474 22.0606C84.474 22.5989 84.6847 23.0459 85.1038 23.3965C85.4675 23.7194 86.1311 24.0711 87.0907 24.4484C88.268 24.922 89.133 25.4736 89.6868 26.1071C90.2447 26.7405 90.5221 27.531 90.5221 28.4731ZM97.7825 24.1027H95.3681V28.8791C95.3681 30.0939 95.7936 30.6998 96.6463 30.6998C97.0376 30.6998 97.3623 30.6669 97.6192 30.5983L97.6797 32.2581C97.2483 32.4192 96.6801 32.5001 95.9763 32.5001C95.1113 32.5001 94.4353 32.2366 93.9473 31.7097C93.4614 31.1827 93.2169 30.3 93.2169 29.0575V24.0986H91.7785V22.4583H93.2169V20.657L95.3681 20.0091V22.4583H97.7825V24.1027ZM108.654 27.3003C108.654 28.8124 108.221 30.0539 107.355 31.0248C106.45 32.0244 105.246 32.5226 103.745 32.5226C102.297 32.5226 101.145 32.0439 100.286 31.0874C99.4272 30.1287 98.9978 28.9211 98.9978 27.4643C98.9978 25.9398 99.4416 24.6912 100.326 23.7203C101.213 22.7484 102.407 22.2626 103.908 22.2626C105.354 22.2626 106.516 22.7423 107.395 23.6998C108.236 24.6286 108.654 25.8281 108.654 27.3003ZM106.384 27.3505C106.384 26.4493 106.188 25.6763 105.797 25.0294C105.338 24.2482 104.68 23.8577 103.828 23.8577C102.951 23.8577 102.278 24.2482 101.82 25.0294C101.428 25.6763 101.232 26.4626 101.232 27.3914C101.232 28.2937 101.428 29.0687 101.82 29.7136C102.294 30.4948 102.954 30.8854 103.81 30.8854C104.647 30.8854 105.304 30.4866 105.778 29.6941C106.181 29.0318 106.384 28.2537 106.384 27.3505ZM115.777 24.3846C115.56 24.3446 115.328 24.3241 115.086 24.3241C114.316 24.3241 113.72 24.6133 113.301 25.1955C112.937 25.7081 112.754 26.356 112.754 27.1382V32.3001H110.564V25.5605C110.564 24.4277 110.542 23.3943 110.5 22.4634H112.408L112.488 24.3456H112.549C112.781 23.6988 113.145 23.1769 113.644 22.7863C114.132 22.4347 114.659 22.2593 115.227 22.2593C115.43 22.2593 115.613 22.2737 115.775 22.2994L115.777 24.3846ZM125.573 26.9158C125.573 27.3075 125.547 27.6375 125.492 27.9072H118.921C118.946 28.8791 119.265 29.6234 119.875 30.136C120.429 30.5933 121.145 30.8229 122.024 30.8229C122.997 30.8229 123.885 30.6691 124.683 30.3584L125.026 31.8747C124.093 32.2807 122.992 32.4827 121.721 32.4827C120.192 32.4827 118.992 32.0335 118.119 31.1376C117.248 30.2406 116.811 29.0349 116.811 27.5248C116.811 26.0423 117.217 24.807 118.03 23.8218C118.88 22.77 120.03 22.2439 121.477 22.2439C122.897 22.2439 123.973 22.7699 124.703 23.8218C125.282 24.6553 125.573 25.6887 125.573 26.9158ZM123.484 26.3489C123.499 25.7 123.356 25.1412 123.059 24.6686C122.679 24.0596 122.096 23.7562 121.314 23.7562C120.598 23.7562 120.015 24.0525 119.571 24.6471C119.206 25.1197 118.989 25.6877 118.923 26.3469L123.484 26.3489Z" fill="#5B2E4F"/>
<path d="M50.1586 13.774H49.0109L48.3832 11.8046H46.2001L45.6011 13.774H44.4844L46.648 7.06824H47.9836L50.1586 13.774ZM48.1942 10.9783L47.626 9.2273C47.5665 9.0479 47.4565 8.63064 47.287 7.96426H47.2665C47.1966 8.25234 47.097 8.67062 46.947 9.2273L46.3891 10.9783H48.1942ZM55.5686 8.93922L53.7337 13.774H52.6868L50.9116 8.93922H52.0684L52.8964 11.4961C53.0361 11.9236 53.1553 12.3316 53.2447 12.7191H53.2745C53.3547 12.3716 53.4738 11.9636 53.6228 11.4961L54.4405 8.93922H55.5686ZM59.4746 13.774L59.3945 13.2173H59.3646C59.0359 13.6653 58.5571 13.8837 57.949 13.8837C57.0818 13.8837 56.4633 13.2767 56.4633 12.4607C56.4633 11.2674 57.4999 10.6502 59.2948 10.6502V10.561C59.2948 9.92435 58.9557 9.60552 58.2879 9.60552C57.8091 9.60552 57.39 9.72546 57.0222 9.96433L56.8033 9.25798C57.2523 8.97912 57.8102 8.8397 58.4687 8.8397C59.7344 8.8397 60.3734 9.50607 60.3734 10.8399V12.6206C60.3734 13.1086 60.3939 13.4869 60.4433 13.775L59.4746 13.774ZM59.3246 11.3659C58.1278 11.3659 57.5298 11.655 57.5298 12.3408C57.5298 12.8483 57.8391 13.0964 58.2675 13.0964C58.816 13.0964 59.3246 12.6791 59.3246 12.1122V11.3659ZM62.7714 8.14265C62.4129 8.14265 62.1334 7.8638 62.1334 7.49575C62.1334 7.12771 62.4222 6.8591 62.792 6.8591C63.1608 6.8591 63.4598 7.12771 63.4496 7.49575C63.4496 7.8843 63.1712 8.14265 62.7714 8.14265ZM63.3303 13.774H62.2536V8.93922H63.3303V13.774ZM66.3199 13.774H65.2433V6.7207H66.3199V13.774ZM70.8958 13.774L70.8156 13.2173H70.7859C70.4571 13.6653 69.9784 13.8837 69.3702 13.8837C68.5031 13.8837 67.8846 13.2767 67.8846 12.4607C67.8846 11.2674 68.9211 10.6502 70.7159 10.6502V10.561C70.7159 9.92435 70.3769 9.60552 69.7091 9.60552C69.2304 9.60552 68.8112 9.72546 68.4434 9.96433L68.2236 9.25695C68.6726 8.9781 69.2305 8.83867 69.889 8.83867C71.1547 8.83867 71.7936 9.50505 71.7936 10.8388V12.6196C71.7936 13.1076 71.8153 13.4859 71.8626 13.774H70.8958V13.774ZM70.7458 11.3659C69.5489 11.3659 68.951 11.655 68.951 12.3408C68.951 12.8483 69.2602 13.0964 69.6886 13.0964C70.2372 13.0964 70.7458 12.6791 70.7458 12.1122V11.3659ZM76.156 13.8837C75.4687 13.8837 74.9611 13.5946 74.6323 13.0277H74.6108L74.5491 13.774H73.6317C73.6615 13.3865 73.6717 12.9477 73.6717 12.471V6.7207H74.7495V9.64661H74.77C75.0894 9.10941 75.6064 8.84081 76.3152 8.84081C77.4822 8.84081 78.3 9.83627 78.3 11.2879C78.3 12.7888 77.3918 13.8837 76.156 13.8837ZM75.9371 9.68454C75.3176 9.68454 74.7506 10.2217 74.7506 10.9681V11.8139C74.7506 12.4802 75.2601 13.0277 75.9187 13.0277C76.7252 13.0277 77.2049 12.3716 77.2049 11.3269C77.2038 10.3519 76.7045 9.68454 75.9371 9.68454ZM80.9681 13.774H79.8925V6.7207H80.9681V13.774ZM86.8293 11.615H83.5972C83.6188 12.5305 84.2248 13.0472 85.1227 13.0472C85.6015 13.0472 86.0402 12.9672 86.4285 12.8186L86.596 13.5649C86.1378 13.7638 85.5994 13.8632 84.9717 13.8632C83.4553 13.8632 82.5584 12.9078 82.5584 11.4263C82.5584 9.94392 83.477 8.82953 84.8505 8.82953C86.0865 8.82953 86.8651 9.74503 86.8651 11.128C86.8692 11.3167 86.86 11.4858 86.8293 11.615ZM85.8419 10.8492C85.8419 10.1028 85.4627 9.57587 84.7745 9.57587C84.1559 9.57587 83.669 10.1131 83.5971 10.8492H85.8419ZM93.355 13.8837C91.9393 13.8837 91.0219 12.8288 91.0219 11.3966C91.0219 9.90393 91.9588 8.83978 93.4362 8.83978C94.8302 8.83978 95.7693 9.84447 95.7693 11.3177C95.7694 12.8288 94.8015 13.8837 93.355 13.8837ZM93.3961 9.62508C92.6184 9.62508 92.1202 10.3509 92.1202 11.3659C92.1202 12.3613 92.6287 13.0872 93.3859 13.0872C94.1431 13.0872 94.6505 12.3111 94.6505 11.3454C94.6515 10.3612 94.1532 9.62508 93.3961 9.62508ZM101.557 13.774H100.482V10.9978C100.482 10.1428 100.153 9.71427 99.5049 9.71427C98.8669 9.71427 98.4272 10.2617 98.4272 10.8984V13.774H97.3515V10.3212C97.3515 9.89368 97.3402 9.43542 97.3115 8.9382H98.2587L98.309 9.68454H98.3388C98.6264 9.16784 99.2162 8.83876 99.8737 8.83876C100.89 8.83876 101.558 9.61483 101.558 10.8779V13.774H101.557ZM108.602 9.74503H107.418V12.0927C107.418 12.6904 107.626 12.9887 108.044 12.9887C108.234 12.9887 108.395 12.9682 108.523 12.9385L108.553 13.7546C108.343 13.8346 108.063 13.8745 107.716 13.8745C106.868 13.8745 106.361 13.407 106.361 12.1829V9.74503H105.655V8.93922H106.361V8.05346L107.418 7.73462V8.9382H108.602V9.74503ZM114.304 13.774H113.226V11.0183C113.226 10.1531 112.897 9.7153 112.249 9.7153C111.691 9.7153 111.174 10.0936 111.174 10.8594V13.774H110.096V6.7207H111.174V9.62508H111.194C111.533 9.09813 112.022 8.83876 112.65 8.83876C113.676 8.83876 114.304 9.63431 114.304 10.8984V13.774ZM119.806 11.615H116.575C116.595 12.5305 117.201 13.0472 118.099 13.0472C118.579 13.0472 119.017 12.9672 119.405 12.8186L119.573 13.5649C119.115 13.7638 118.576 13.8632 117.948 13.8632C116.432 13.8632 115.535 12.9078 115.535 11.4263C115.535 9.94392 116.453 8.82953 117.827 8.82953C119.063 8.82953 119.842 9.74503 119.842 11.128C119.846 11.3167 119.835 11.4858 119.806 11.615ZM118.818 10.8492C118.818 10.1028 118.44 9.57587 117.752 9.57587C117.132 9.57587 116.645 10.1131 116.574 10.8492H118.818Z" fill="#5B2E4F"/>
</g>
<defs>
<clipPath id="clip0_11463_102684">
<rect width="138.619" height="41" fill="white" transform="translate(0.078125)"/>
</clipPath>
</defs>
</svg>
