<svg width="143" height="41" viewBox="0 0 143 41" fill="none" xmlns="http://www.w3.org/2000/svg">
<path d="M141.579 36.8901C141.579 38.887 139.972 40.5 137.988 40.5H4.09661C2.11286 40.5 0.5 38.8861 0.5 36.8901V4.11524C0.5 2.11954 2.11388 0.5 4.09661 0.5H137.987C139.971 0.5 141.578 2.11854 141.578 4.11524L141.579 36.8901Z" stroke="black"/>
<path d="M22.7302 18.9261C22.7302 18.9261 13.9163 14.0048 13.3973 13.7173C12.8783 13.4299 12.3594 13.6041 12.3594 14.2051V35.4149C12.3594 35.8678 12.7313 36.0594 13.1811 35.8155C13.6309 35.5629 22.7302 30.4848 22.7302 30.4848C22.7302 30.4848 23.967 29.7967 24.5812 29.4483C25.5758 28.8908 27.5652 27.7846 27.5652 27.7846C27.5652 27.7846 31.6738 25.4938 32.2187 25.1889C32.7636 24.884 32.7117 24.4659 32.2533 24.2307C31.7949 23.9956 27.5739 21.6176 27.5739 21.6176L22.7302 18.9261Z" fill="url(#paint0_linear_11463_102642)"/>
<path d="M24.3744 24.6745L12.784 13.6123C12.5159 13.6733 12.3516 13.8823 12.3516 14.222V35.3882C12.3516 35.6757 12.464 35.8499 12.611 35.9109L24.3744 24.6745Z" fill="url(#paint1_linear_11463_102642)"/>
<mask id="mask0_11463_102642" style="mask-type:alpha" maskUnits="userSpaceOnUse" x="12" y="13" width="13" height="23">
<path d="M24.3744 24.6745L12.784 13.6123C12.5159 13.6733 12.3516 13.8823 12.3516 14.222V35.3882C12.3516 35.6757 12.464 35.8499 12.611 35.9109L24.3744 24.6745Z" fill="white"/>
</mask>
<g mask="url(#mask0_11463_102642)">
</g>
<mask id="mask1_11463_102642" style="mask-type:alpha" maskUnits="userSpaceOnUse" x="12" y="24" width="16" height="12">
<path d="M13.0773 35.8502L19.7807 32.1396C21.4327 31.2163 22.7388 30.4846 22.7388 30.4846L27.6085 27.8454L24.3649 24.6748L12.6016 35.9112C12.7313 35.9547 12.9648 35.9286 13.1465 35.8415" fill="white"/>
</mask>
<g mask="url(#mask1_11463_102642)">
<path d="M22.7154 18.9251C22.6981 18.9686 13.8842 14.0386 13.3739 13.786C12.8549 13.455 12.3359 13.6379 12.3359 14.2215V35.4748C12.3359 35.9451 12.7079 36.1368 13.1144 35.9103C13.6074 35.6316 22.6981 30.5534 22.7154 30.5099L27.5591 27.8096C27.5332 27.8445 31.633 25.5537 32.1434 25.2836C32.7315 24.9439 32.671 24.5258 32.2298 24.3255C31.7541 24.0468 27.5332 21.6688 27.5591 21.6253L22.7154 18.9251Z" fill="url(#paint2_linear_11463_102642)"/>
</g>
<path d="M13.3728 13.7096C13.1479 13.5964 12.9316 13.5615 12.75 13.6051L24.349 24.6846L27.558 21.6273L22.7229 18.9271C22.7229 18.9271 18.1646 16.3837 15.4141 14.8506L13.3728 13.7096Z" fill="url(#paint3_linear_11463_102642)"/>
<mask id="mask2_11463_102642" style="mask-type:alpha" maskUnits="userSpaceOnUse" x="12" y="13" width="16" height="12">
<path d="M13.3728 13.7096C13.1479 13.5964 12.9316 13.5615 12.75 13.6051L24.349 24.6846L27.558 21.6273L22.7229 18.9271C22.7229 18.9271 18.1646 16.3837 15.4141 14.8506L13.3728 13.7096Z" fill="white"/>
</mask>
<g mask="url(#mask2_11463_102642)">
</g>
<path d="M94.6439 28.4113L93.6838 29.3259C93.459 29.4478 93.2427 29.5959 93.0265 29.6917C92.3605 29.9966 91.6858 30.0749 91.0803 30.0749C90.4403 30.0749 89.4369 30.0314 88.4163 29.2823C86.9978 28.2719 86.375 26.5211 86.375 25.0055C86.375 21.8611 88.9007 20.3193 90.9679 20.3193C91.6858 20.3193 92.4297 20.5023 93.0265 20.8855C94.0298 21.5562 94.2893 22.4272 94.4277 22.8976L89.7224 24.8226L88.1828 24.9445C88.6844 27.5228 90.4057 29.021 92.3086 29.021C93.26 29.021 93.9606 28.7074 94.6094 28.3851C94.6094 28.3851 94.7391 28.3155 94.6439 28.4113ZM91.7723 23.2373C92.1529 23.0979 92.3432 22.976 92.3432 22.6886C92.3432 21.8698 91.4523 20.9291 90.3797 20.9291C89.5926 20.9291 88.1049 21.5649 88.1049 23.7686C88.1049 24.1171 88.1482 24.4829 88.1655 24.8487L91.7723 23.2373Z" fill="#5B2E4F"/>
<path d="M84.8192 28.2977C84.8192 29.0817 84.9576 29.2036 85.6149 29.2646C85.9609 29.3081 86.2983 29.3255 86.6356 29.3604L85.9004 29.8046H82.38C82.8384 29.1949 82.9249 29.1339 82.9249 28.7332V28.2803L82.9163 16.26H81.3594L82.8557 15.5283H85.7101C85.0873 15.8942 84.9057 16.1119 84.8278 16.8175L84.8192 28.2977Z" fill="#5B2E4F"/>
<path d="M79.3527 21.3117C79.8111 21.695 80.7625 22.5051 80.7625 24.0381C80.7625 25.5363 79.9322 26.2418 79.0932 26.9125C78.8337 27.1738 78.5309 27.4613 78.5309 27.9055C78.5309 28.3497 78.8337 28.5936 79.0499 28.7765L79.7678 29.3427C80.6414 30.0918 81.4372 30.7799 81.4372 32.1736C81.4372 34.0724 79.6208 35.9974 76.1956 35.9974C73.3066 35.9974 71.9141 34.6038 71.9141 33.1056C71.9141 32.3739 72.2687 31.3461 73.4537 30.6406C74.6906 29.874 76.3599 29.7695 77.2595 29.7085C76.9827 29.3427 76.6627 28.9595 76.6627 28.3323C76.6627 27.9926 76.7664 27.7836 76.8616 27.5397C76.6454 27.5571 76.4205 27.5832 76.2215 27.5832C74.111 27.5832 72.9174 25.9805 72.9174 24.4039C72.9174 23.4719 73.3326 22.4441 74.1975 21.695C75.3306 20.7456 76.6886 20.5801 77.7611 20.5801H81.8697L80.5895 21.3117H79.3527ZM77.9514 30.2747C77.7871 30.2486 77.6919 30.2486 77.493 30.2486C77.3114 30.2486 76.2215 30.2921 75.3825 30.5796C74.9414 30.7451 73.6526 31.2416 73.6526 32.7049C73.6526 34.1683 75.0365 35.2222 77.1903 35.2222C79.1191 35.2222 80.1398 34.2728 80.1398 33.0011C80.1398 31.9384 79.4737 31.3809 77.9514 30.2747ZM78.5136 26.3725C78.9721 25.9108 79.0153 25.2663 79.0153 24.9004C79.0153 23.4458 78.1677 21.1898 76.5156 21.1898C76.0053 21.1898 75.4431 21.4511 75.123 21.8605C74.7857 22.2786 74.6906 22.8274 74.6906 23.35C74.6906 24.7001 75.469 26.9386 77.173 26.9386C77.666 26.9386 78.2023 26.6948 78.5136 26.3725Z" fill="#5B2E4F"/>
<path d="M66.94 30.0749C63.7656 30.0749 62.0703 27.5489 62.0703 25.2668C62.0703 22.6015 64.2067 20.3193 67.2427 20.3193C70.1749 20.3193 72.0173 22.6624 72.0173 25.1275C72.0173 27.5315 70.2009 30.0749 66.94 30.0749ZM69.4224 28.4287C69.9068 27.7754 70.0279 26.9566 70.0279 26.164C70.0279 24.3609 69.1889 20.9291 66.6978 20.9291C66.0404 20.9291 65.3744 21.1904 64.8901 21.6259C64.1116 22.3401 63.9646 23.2373 63.9646 24.1171C63.9646 26.1379 64.942 29.4652 67.3725 29.4652C68.1682 29.4652 68.964 29.082 69.4224 28.4287Z" fill="#5B2E4F"/>
<path d="M56.2916 30.0749C53.1172 30.0749 51.4219 27.5489 51.4219 25.2668C51.4219 22.6015 53.5583 20.3193 56.5943 20.3193C59.5265 20.3193 61.3688 22.6624 61.3688 25.1275C61.3688 27.5315 59.5524 30.0749 56.2916 30.0749ZM58.774 28.4287C59.2583 27.7754 59.3794 26.9566 59.3794 26.164C59.3794 24.3609 58.5318 20.9291 56.0494 20.9291C55.3834 20.9291 54.726 21.1904 54.2416 21.6259C53.4545 22.3401 53.3161 23.2373 53.3161 24.1171C53.3161 26.1379 54.3022 29.4652 56.724 29.4652C57.5198 29.4652 58.3155 29.082 58.774 28.4287Z" fill="#5B2E4F"/>
<path d="M50.1132 29.4737L47.4232 30.1008C46.3334 30.275 45.356 30.4318 44.3181 30.4318C39.1283 30.4231 37.1562 26.5557 37.1562 23.5245C37.1562 19.8313 39.9587 16.3994 44.7505 16.3994C45.7625 16.3994 46.7399 16.5475 47.6308 16.8001C49.0407 17.2008 49.6981 17.6973 50.1132 17.9847L48.5477 19.4916L47.8903 19.6397L48.3574 18.8819C47.7173 18.2547 46.5496 17.0875 44.3354 17.0875C41.3686 17.0875 39.1283 19.3697 39.1283 22.7057C39.1283 26.2857 41.68 29.6566 45.7798 29.6566C46.9821 29.6566 47.6049 29.4127 48.1671 29.1862V26.1115L45.3301 26.2683L46.8351 25.4495H50.8225L50.3381 25.9286C50.2084 26.0418 50.1911 26.0766 50.1478 26.2334C50.1305 26.4076 50.1132 26.9564 50.1132 27.1567V29.4737Z" fill="#5B2E4F"/>
<path d="M100.442 28.4984V33.6462H99.4297V20.5545H100.442V22.044C101.099 21.0771 102.31 20.3193 103.703 20.3193C106.211 20.3193 107.906 22.2443 107.906 25.2842C107.906 28.3067 106.22 30.2666 103.703 30.2666C102.388 30.2666 101.203 29.5785 100.442 28.4984ZM106.868 25.3626C106.868 23.0457 105.683 21.2775 103.573 21.2775C102.267 21.2775 101.013 22.3227 100.468 23.2373V27.4705C101.013 28.3851 102.267 29.4652 103.573 29.4652C105.683 29.4652 106.868 27.6796 106.868 25.3626Z" fill="#5B2E4F"/>
<path d="M109.297 16.9219H110.335V30.0745H109.297V16.9219Z" fill="#5B2E4F"/>
<path d="M121.62 32.7399C121.836 32.8358 122.208 32.8967 122.441 32.8967C123.064 32.8967 123.488 32.6441 123.877 31.7383L124.612 30.0484L120.625 20.4932H121.758L125.175 28.7767L128.565 20.4932H129.707L124.846 32.0518C124.344 33.2451 123.549 33.82 122.459 33.82C122.13 33.82 121.698 33.7591 121.447 33.6807L121.62 32.7399Z" fill="#5B2E4F"/>
<path d="M118.759 30.0662C118.69 29.7352 118.638 29.4478 118.603 29.2039C118.569 28.96 118.552 28.7161 118.552 28.4635C118.206 28.9774 117.713 29.413 117.073 29.7527C116.441 30.0924 115.836 30.2579 115.014 30.2579C114.019 30.2579 113.249 30.014 112.705 29.5088C112.16 29.0123 111.883 28.3329 111.883 27.4793C111.883 26.6256 112.281 25.9288 113.076 25.3975C113.872 24.8661 114.901 24.5961 116.173 24.5961H118.543V23.4115C118.543 22.7321 118.309 22.1921 117.851 21.8088C117.393 21.4168 116.744 21.2252 115.905 21.2252C115.135 21.2252 114.512 21.4081 114.037 21.7565C113.569 22.1137 113.327 22.5579 113.327 23.0892H112.289L112.272 23.037C112.237 22.314 112.557 21.6869 113.258 21.1381C113.95 20.5894 114.85 20.3193 115.965 20.3193C117.073 20.3193 117.972 20.5894 118.647 21.1294C119.321 21.6607 119.659 22.436 119.659 23.4376V28.1412C119.659 28.481 119.676 28.8032 119.719 29.1255C119.763 29.4478 119.832 29.7614 119.918 30.0662H118.759ZM115.144 29.3781C116.009 29.3781 116.631 29.1778 117.263 28.7945C117.894 28.4113 118.318 27.9061 118.543 27.2963V25.4585H116.156C115.247 25.4585 114.495 25.6588 113.898 26.0769C113.301 26.4863 113.007 26.9828 113.007 27.5664C113.007 28.1151 113.198 28.5506 113.578 28.8816C113.967 29.2126 114.486 29.3781 115.144 29.3781Z" fill="#5B2E4F"/>
<path d="M36.8047 8.06394C36.8047 6.19121 38.2924 4.98047 40.1434 4.98047C41.3803 4.98047 42.1933 5.53793 42.7037 6.21734L41.7955 6.70512C41.4495 6.26089 40.8527 5.91248 40.1434 5.91248C38.8892 5.91248 37.9464 6.80965 37.9464 8.06394C37.9551 9.30952 38.8892 10.2154 40.1434 10.2154C40.7921 10.2154 41.363 9.93667 41.6484 9.67536V8.76077H39.7455V7.83747H42.7556V10.0586C42.1328 10.7119 41.2419 11.1474 40.1434 11.1474C38.2924 11.1561 36.8047 9.93667 36.8047 8.06394Z" fill="#5B2E4F"/>
<path d="M44.1953 11.0689V5.07617H48.6152V5.99947H45.3284V7.54121H48.546V8.47322H45.3284V10.1456H48.6152V11.0689H44.1953Z" fill="#5B2E4F"/>
<path d="M51.6155 11.0689V5.99947H49.6953V5.07617H54.6515V5.99947H52.7313V11.0689H51.6155Z" fill="#5B2E4F"/>
<path d="M58.625 5.07617H59.7062V11.0689H58.625V5.07617Z" fill="#5B2E4F"/>
<path d="M62.803 11.0689V5.99947H60.8828V5.07617H65.839V5.99947H63.9188V11.0689H62.803Z" fill="#5B2E4F"/>
<path d="M69.5391 8.07273C69.5391 6.29581 70.897 4.98926 72.8345 4.98926C74.7547 4.98926 76.1214 6.29581 76.1214 8.07273C76.1214 9.84964 74.7461 11.1562 72.8345 11.1562C70.897 11.1562 69.5391 9.84964 69.5391 8.07273ZM74.945 8.02047C74.945 6.80101 74.1147 5.88643 72.8259 5.88643C71.5285 5.88643 70.7067 6.80101 70.7067 8.02047C70.7067 9.23121 71.5285 10.1545 72.8259 10.1545C74.1147 10.1545 74.945 9.23992 74.945 8.02047Z" fill="#5B2E4F"/>
<path d="M81.8114 11.0689L78.4986 6.7834V11.0689H77.3828V5.07617H78.5245L81.7681 9.23102V5.07617H82.8839V11.0689H81.8114Z" fill="#5B2E4F"/>
<defs>
<linearGradient id="paint0_linear_11463_102642" x1="17.1404" y1="20.6343" x2="24.5561" y2="31.4406" gradientUnits="userSpaceOnUse">
<stop stop-color="#FF177B"/>
<stop offset="1" stop-color="#FFEC73"/>
</linearGradient>
<linearGradient id="paint1_linear_11463_102642" x1="20.285" y1="5.4364" x2="6.93968" y2="33.5783" gradientUnits="userSpaceOnUse">
<stop stop-color="#064AA2"/>
<stop offset="1" stop-color="#63FFD4"/>
</linearGradient>
<linearGradient id="paint2_linear_11463_102642" x1="24.2647" y1="18.102" x2="7.96744" y2="27.7833" gradientUnits="userSpaceOnUse">
<stop stop-color="#FF4521"/>
<stop offset="1" stop-color="#8A33DB"/>
</linearGradient>
<linearGradient id="paint3_linear_11463_102642" x1="14.9432" y1="10.0549" x2="20.8279" y2="25.2441" gradientUnits="userSpaceOnUse">
<stop stop-color="#00A3B5"/>
<stop offset="1" stop-color="#D6FFA1"/>
</linearGradient>
</defs>
</svg>
